<svg width="96" height="96" viewBox="0 0 96 96" fill="none" xmlns="http://www.w3.org/2000/svg" role="img" aria-label="Vibe coding guide character face">
  <path d="M24 45C24 27.8 36.9 16 51.8 16C68.2 16 79.5 28.4 79.5 45.5C79.5 65 66.1 78 48.4 78C31.7 78 24 63.9 24 45Z" fill="white"/>
  <path d="M26 39.8C28.1 25.8 39.8 16.2 53 16.8C67.4 17.5 77.2 29 78.3 44.5" stroke="#111111" stroke-width="6.5" stroke-linecap="round"/>
  <path d="M25.2 42.4C27.4 51.3 34.3 54 39.5 46.8C43.8 55.7 53 56.2 56.2 47.1C60.8 55 68.6 56.1 72.8 49" stroke="#111111" stroke-width="6.5" stroke-linecap="round" stroke-linejoin="round"/>
  <path d="M72.5 48.8C82.8 47.1 86.3 58.1 78.6 63.7C75.6 65.9 72.4 65.6 70.1 64.1" fill="white"/>
  <path d="M72.5 48.8C82.8 47.1 86.3 58.1 78.6 63.7C75.6 65.9 72.4 65.6 70.1 64.1" stroke="#111111" stroke-width="6.5" stroke-linecap="round" stroke-linejoin="round"/>
  <path d="M25.2 48.1C24.6 68.2 38.5 79.2 53.4 77.1C62.9 75.8 69.7 70.7 73.4 63.3" stroke="#111111" stroke-width="6.5" stroke-linecap="round"/>
  <ellipse cx="40.1" cy="49.8" rx="3.3" ry="6.2" fill="#111111"/>
  <ellipse cx="57.3" cy="49.8" rx="3.3" ry="6.2" fill="#111111"/>
  <path d="M32.2 35.4C41 25.4 55.5 21 68.4 28.8" stroke="#8B8B8B" stroke-width="5.5" stroke-linecap="round" opacity="0.95"/>
</svg>
